<svg width="15" height="14" viewBox="0 0 15 14" fill="none" xmlns="http://www.w3.org/2000/svg">
<path d="M7.47656 13C10.7903 13 13.4766 10.3137 13.4766 7C13.4766 3.68629 10.7903 1 7.47656 1C4.16285 1 1.47656 3.68629 1.47656 7C1.47656 10.3137 4.16285 13 7.47656 13Z" stroke="#8E8E8E" stroke-width="2"/>
<path d="M5.70352 5.84821L5.15746 8.57852C5.06944 9.01864 5.45745 9.40664 5.89753 9.31864L8.62785 8.77254C8.93907 8.71029 9.18234 8.46702 9.24458 8.15581L9.79067 5.42549C9.87867 4.9854 9.49067 4.5974 9.05057 4.68541L6.32025 5.23148C6.00903 5.29372 5.76576 5.53699 5.70352 5.84821Z" fill="#8E8E8E"/>
</svg>
