<svg width="20" height="20" viewBox="0 0 20 20" fill="none" xmlns="http://www.w3.org/2000/svg">
<g clip-path="url(#clip0_1_14)">
<path fill-rule="evenodd" clip-rule="evenodd" d="M1.87324 13.5813C0.838833 12.7717 0.321625 12.3669 0.127843 11.9002C0.0425791 11.6948 -3.49917e-05 11.4815 2.15584e-08 11.2682V8.6595H0.652174V9.95558C0.937592 9.688 1.33554 9.3765 1.87324 8.95575L7.04482 4.9084C8.07922 4.09886 8.59642 3.69409 9.19283 3.54243C9.71742 3.40903 10.2826 3.40903 10.8072 3.54243C11.4036 3.69409 11.9207 4.09886 12.9552 4.90839L18.1267 8.95575C18.6645 9.37658 19.0624 9.688 19.3478 9.95558V8.6595H20V11.2682C20 11.4815 19.9574 11.6948 19.8722 11.9002C19.6783 12.3669 19.1612 12.7717 18.1267 13.5812L12.9552 17.6285C11.9207 18.4381 11.4036 18.8428 10.8072 18.9945C10.2826 19.1279 9.71742 19.1279 9.19283 18.9945C8.59642 18.8428 8.07922 18.4381 7.04482 17.6285L1.87324 13.5813Z" fill="#DBDBDB"/>
<path d="M1.87324 10.9722C0.838833 10.1627 0.321625 9.75787 0.127842 9.29112C-0.0426141 8.88062 -0.0426141 8.43829 0.127842 8.02777C0.321625 7.56102 0.838833 7.15625 1.87324 6.34671L7.04482 2.29939C8.07922 1.48985 8.59642 1.08508 9.19283 0.933424C9.71742 0.800024 10.2826 0.800024 10.8072 0.933424C11.4036 1.08508 11.9207 1.48985 12.9552 2.29939L18.1267 6.34671C19.1612 7.15625 19.6783 7.56102 19.8722 8.02777C20.0426 8.43829 20.0426 8.88062 19.8722 9.29112C19.6783 9.75787 19.1612 10.1627 18.1267 10.9722L12.9552 15.0195C11.9207 15.829 11.4036 16.2339 10.8072 16.3855C10.2826 16.5189 9.71742 16.5189 9.19283 16.3855C8.59642 16.2339 8.07922 15.829 7.04482 15.0195L1.87324 10.9722Z" fill="white"/>
<path d="M7.7836 5.96123C7.2664 5.55646 7.0078 5.35407 6.9109 5.1207C6.82568 4.91541 6.82568 4.69429 6.9109 4.48901C7.0078 4.25563 7.2664 4.05325 7.7836 3.64847L8.52241 3.07029C9.03958 2.66552 9.29825 2.46313 9.59641 2.38731C9.85875 2.32061 10.1412 2.32061 10.4036 2.38731C10.7017 2.46313 10.9604 2.66552 11.4776 3.07029L12.2164 3.64847C12.7336 4.05325 12.9922 4.25563 13.0891 4.48901C13.1743 4.69429 13.1743 4.91541 13.0891 5.1207C12.9922 5.35407 12.7336 5.55646 12.2164 5.96123L11.4776 6.53941C10.9604 6.94419 10.7017 7.14657 10.4036 7.2224C10.1412 7.2891 9.85875 7.2891 9.59641 7.2224C9.29825 7.14657 9.03958 6.94419 8.52241 6.53941L7.7836 5.96123Z" fill="#FF8686"/>
<path d="M12.7089 9.81588C12.1918 9.41105 11.9331 9.20872 11.8363 8.9753C11.751 8.77005 11.751 8.54888 11.8363 8.34363C11.9331 8.11025 12.1918 7.90786 12.7089 7.50309L13.4478 6.9249C13.9649 6.52013 14.2235 6.31775 14.5218 6.24193C14.784 6.17522 15.0666 6.17522 15.3289 6.24193C15.6271 6.31775 15.8857 6.52013 16.4029 6.9249L17.1417 7.50309C17.6589 7.90786 17.9175 8.11025 18.0144 8.34363C18.0996 8.54888 18.0996 8.77005 18.0144 8.9753C17.9175 9.20872 17.6589 9.41105 17.1417 9.81588L16.4029 10.3941C15.8857 10.7988 15.6271 11.0012 15.3289 11.0771C15.0666 11.1437 14.784 11.1437 14.5218 11.0771C14.2235 11.0012 13.9649 10.7988 13.4478 10.3941L12.7089 9.81588Z" fill="#5AFF88"/>
<path d="M2.85831 9.81588C2.34111 9.41105 2.0825 9.20872 1.98561 8.9753C1.90039 8.77005 1.90039 8.54888 1.98561 8.34363C2.0825 8.11025 2.34111 7.90786 2.85831 7.50309L3.59711 6.9249C4.11432 6.52013 4.37292 6.31775 4.67112 6.24193C4.93343 6.17522 5.21598 6.17522 5.47829 6.24193C5.77649 6.31775 6.03509 6.52013 6.55229 6.9249L12.2164 11.3577C12.7336 11.7625 12.9922 11.9648 13.0891 12.1982C13.1743 12.4035 13.1743 12.6246 13.0891 12.8299C12.9922 13.0633 12.7336 13.2656 12.2164 13.6705L11.4776 14.2486C10.9604 14.6534 10.7018 14.8558 10.4036 14.9316C10.1413 14.9983 9.85876 14.9983 9.59643 14.9316C9.29826 14.8558 9.03959 14.6534 8.52243 14.2486L2.85831 9.81588Z" fill="#768CFF"/>
</g>
<defs>
<clipPath id="clip0_1_14">
<rect width="20" height="20" fill="white"/>
</clipPath>
</defs>
</svg>
